<svg xmlns="http://www.w3.org/2000/svg" width="375" viewBox="0 0 375 375" height="375" version="1.0"><path fill="#606368" d="M 51.75 0 C 23.167969 0 0 23.167969 0 51.75 C 0 80.332031 23.167969 103.5 51.75 103.5 C 80.332031 103.5 103.5 80.332031 103.5 51.75 C 103.5 23.167969 80.332031 0 51.75 0"/><path fill="#606368" d="M 187.6875 0 C 159.105469 0 135.9375 23.167969 135.9375 51.75 C 135.9375 80.332031 159.105469 103.5 187.6875 103.5 C 216.269531 103.5 239.4375 80.332031 239.4375 51.75 C 239.4375 23.167969 216.269531 0 187.6875 0"/><path fill="#606368" d="M 323.625 0 C 295.042969 0 271.875 23.167969 271.875 51.75 C 271.875 80.332031 295.042969 103.5 323.625 103.5 C 352.207031 103.5 375.375 80.332031 375.375 51.75 C 375.375 23.167969 352.207031 0 323.625 0"/><path fill="#606368" d="M 187.6875 135.9375 C 159.105469 135.9375 135.9375 159.105469 135.9375 187.6875 C 135.9375 216.269531 159.105469 239.4375 187.6875 239.4375 C 216.269531 239.4375 239.4375 216.269531 239.4375 187.6875 C 239.4375 159.105469 216.269531 135.9375 187.6875 135.9375"/><path fill="#606368" d="M 187.6875 271.875 C 159.105469 271.875 135.9375 295.042969 135.9375 323.625 C 135.9375 352.207031 159.105469 375.375 187.6875 375.375 C 216.269531 375.375 239.4375 352.207031 239.4375 323.625 C 239.4375 295.042969 216.269531 271.875 187.6875 271.875"/><path fill="#606368" d="M 323.625 135.9375 C 295.042969 135.9375 271.875 159.105469 271.875 187.6875 C 271.875 216.269531 295.042969 239.4375 323.625 239.4375 C 352.207031 239.4375 375.375 216.269531 375.375 187.6875 C 375.375 159.105469 352.207031 135.9375 323.625 135.9375"/><path fill="#606368" d="M 51.75 135.9375 C 23.167969 135.9375 0 159.105469 0 187.6875 C 0 216.269531 23.167969 239.4375 51.75 239.4375 C 80.332031 239.4375 103.5 216.269531 103.5 187.6875 C 103.5 159.105469 80.332031 135.9375 51.75 135.9375"/><path fill="#606368" d="M 51.75 271.875 C 23.167969 271.875 0 295.042969 0 323.625 C 0 352.207031 23.167969 375.375 51.75 375.375 C 80.332031 375.375 103.5 352.207031 103.5 323.625 C 103.5 295.042969 80.332031 271.875 51.75 271.875"/><path fill="#606368" d="M 323.625 271.875 C 295.042969 271.875 271.875 295.042969 271.875 323.625 C 271.875 352.207031 295.042969 375.375 323.625 375.375 C 352.207031 375.375 375.375 352.207031 375.375 323.625 C 375.375 295.042969 352.207031 271.875 323.625 271.875"/></svg>