<svg xmlns="http://www.w3.org/2000/svg" width="375" viewBox="0 0 375 375" height="375" version="1.0"><path fill="#E6E7E9" d="M 139.359375 235.839844 C 85.992188 235.839844 42.878906 192.761719 42.878906 139.359375 C 42.878906 85.992188 85.992188 42.878906 139.359375 42.878906 C 192.761719 42.878906 235.839844 85.992188 235.839844 139.359375 C 235.839844 192.761719 192.761719 235.839844 139.359375 235.839844 Z M 268 235.839844 L 251.085938 235.839844 L 245.0625 230.046875 C 266.070312 205.609375 278.753906 173.882812 278.753906 139.359375 C 278.753906 62.390625 216.332031 0 139.359375 0 C 62.390625 0 0 62.390625 0 139.359375 C 0 216.332031 62.390625 278.71875 139.359375 278.71875 C 173.882812 278.71875 205.609375 266.070312 230.046875 245.0625 L 235.839844 251.085938 L 235.839844 268 L 343.074219 375 L 375 343.039062 L 268 235.839844"/></svg>